<?xml version="1.0" ?><svg id="Layer_1" style="enable-background:new 0 0 70 70;" version="1.1" viewBox="0 0 70 70" xml:space="preserve" xmlns="http://www.w3.org/2000/svg" xmlns:xlink="http://www.w3.org/1999/xlink"><style type="text/css">
	.st0{fill:#A5CEB9;}
	.st1{opacity:0.3;}
	.st2{fill:#FFFFFF;}
	.st3{fill:#F2F6F7;}
	.st4{opacity:0.2;}
	.st5{fill:#B2DDC9;}
	.st6{fill:#EAAAA8;}
	.st7{fill:#D8E3EA;}
	.st8{fill:#E29898;}
	.st9{fill:#FCD786;}
	.st10{fill:#FFE98A;}
	.st11{fill:#99C6DD;}
	.st12{fill:#B0D6EC;}
	.st13{opacity:0.4;}
	.st14{opacity:0.25;}
	.st15{opacity:0.2;fill:#FFFFFF;}
	.st16{opacity:4.000000e-02;}
</style><g><g><g><path class="st6" d="M52.2,47.2h-0.8v-5h-5.1v5h-4.2V34.8h-5.1v12.4h-4.2V29.7h-5.1v17.5h-4.2V22.6h-5.1v24.7h-0.8     c-0.9,0-1.6,0.7-1.6,1.6c0,0.9,0.7,1.6,1.6,1.6h34.5c0.9,0,1.6-0.7,1.6-1.6C53.8,47.9,53.1,47.2,52.2,47.2z"/><path class="st6" d="M27.3,16.8L47,32.4l-2.4,0.3c-0.9,0.1-1.6,1.1-1.3,2c0.2,0.8,1,1.2,1.8,1.1l6-0.7c0.9-0.1,1.5-0.9,1.4-1.7     l-0.7-6.1c-0.1-0.9-1.1-1.6-2-1.3c-0.8,0.2-1.2,1-1.1,1.8l0.3,2.3L29.2,14.4c-0.7-0.5-1.7-0.4-2.2,0.3     C26.5,15.3,26.6,16.3,27.3,16.8z"/></g><g class="st4"><path class="st2" d="M36.3,47.2h-3.4V29.7h-5.1v17.5h-4.2V22.6h-5.1v24.7h-0.8c-0.9,0-1.6,0.7-1.6,1.6c0,0.9,0.7,1.6,1.6,1.6     h18.6V47.2z"/><path class="st2" d="M36.3,20l-7.1-5.6c-0.7-0.5-1.7-0.4-2.2,0.3c-0.5,0.7-0.4,1.7,0.3,2.2l9.1,7.1V20z"/></g></g></g></svg>